<?xml version="1.0" encoding="utf-8"?>
<!-- Generator: Adobe Illustrator 25.2.1, SVG Export Plug-In . SVG Version: 6.00 Build 0)  -->
<svg version="1.1" id="Layer_1" xmlns="http://www.w3.org/2000/svg" xmlns:xlink="http://www.w3.org/1999/xlink" x="0px" y="0px"
	 viewBox="0 0 1080 1080" style="enable-background:new 0 0 1080 1080;" xml:space="preserve">
<style type="text/css">
	.st0{fill:#99000D;}
	.st1{fill:#FFFFFF;}
</style>
<g>
	<path class="st0" d="M965.06,882.67H114.94C51.46,882.67,0,831.21,0,767.73V312.27c0-63.48,51.46-114.94,114.94-114.94h850.13
		c63.48,0,114.94,51.46,114.94,114.94v455.47C1080,831.21,1028.54,882.67,965.06,882.67z"/>
</g>
<path class="st1" d="M485.49,448.84v182.32c0,13.08-8.94,23.68-19.96,23.68H262.55v92.99c0,12.3-12.54,18.46-19.87,9.77L67.5,549.77
	c-4.55-5.4-4.55-14.13,0-19.53L242.68,322.4c7.33-8.7,19.87-2.54,19.87,9.77v92.99h202.98
	C476.55,425.16,485.49,435.76,485.49,448.84z"/>
<path class="st1" d="M594.51,630.51V448.19c0-13.08,8.94-23.68,19.96-23.68h202.98v-92.99c0-12.3,12.54-18.46,19.87-9.77
	l175.18,207.83c4.55,5.4,4.55,14.13,0,19.53L837.32,756.95c-7.33,8.7-19.87,2.54-19.87-9.77v-92.99H614.47
	C603.45,654.19,594.51,643.59,594.51,630.51z"/>
</svg>
